# xmcd CD database file
#
# Track frame offsets:
#	150
#	2595
#	6582
#	10870
#	14157
#	16820
#	22567
#	29112
#	32500
#	36967
#	41880
#	46530
#	51390
#	55487
#	63155
#	70602
#	78292
#	85392
#	92735
#	100510
#	108347
#	114382
#
# Disc length: 1627 seconds
#
# Revision: 0
# Processed by: cddbd v1.5.2PL0 Copyright (c) Steve Scherf et al.
# Submitted via: CDex 1.70beta2
#
DISCID=09065916
DTITLE=St Clair Entertainment Group - Songs for Little Cowboys
DYEAR=2006
DGENRE=Country
TTITLE0=Jolly Cowboy
TTITLE1=Cowboy Waltz
TTITLE2=Railroad Corral
TTITLE3=The Big Corral
TTITLE4=Cattle Interlude
TTITLE5=Little Doggies
TTITLE6=Big Rock Candy Mountain
TTITLE7=Buffalo Gals
TTITLE8=Down in the Valley
TTITLE9=Skip to My Lou
TTITLE10=Polly Wolly Doodle
TTITLE11=Jimmy Cracked Corn
TTITLE12=Arkansas
TTITLE13=Red River Valley
TTITLE14=Workin' on the Railroad
TTITLE15=Bury Me Not
TTITLE16=Ole' Man Tucker
TTITLE17=Yodeling Song
TTITLE18=Home On The Range
TTITLE19=Go Slow Doggies
TTITLE20=Chisholm Trail
TTITLE21=Cow Lullaby
EXTD=YEAR: 2006
EXTT0=
EXTT1=
EXTT2=
EXTT3=
EXTT4=
EXTT5=
EXTT6=
EXTT7=
EXTT8=
EXTT9=
EXTT10=
EXTT11=
EXTT12=
EXTT13=
EXTT14=
EXTT15=
EXTT16=
EXTT17=
EXTT18=
EXTT19=
EXTT20=
EXTT21=
PLAYORDER=
